# xmcd CD database file
#
# Track frame offsets:
#	150
#	25224
#	48527
#	75092
#	97610
#	125433
#	153383
#	180781
#	205058
#	234243
#	263404
#	295096
#	317606
#
# Disc length: 4627 seconds
#
# Revision: 0
# Processed by: cddbd v1.5.1PL2 Copyright (c) Steve Scherf et al.
# Submitted via: CDex 1.51
#
DISCID=8c12110d
DTITLE=Alborada - Five Spirits
DYEAR=2004
DGENRE=New Age
TTITLE0=Love Mountain
TTITLE1=Ananau
TTITLE2=Paway-Anka
TTITLE3=Wayannakuy
TTITLE4=Sunquyman
TTITLE5=Five Spirits
TTITLE6=Nina-Tusuy
TTITLE7=Tatanka
TTITLE8=Puyumuyumuwan
TTITLE9=Wayrapa-Muspuynin
TTITLE10=Tor-Cheney-Nahana
TTITLE11=Alln Qampy
TTITLE12=Heya Heya
EXTD=YEAR: 2004
EXTT0=
EXTT1=
EXTT2=
EXTT3=
EXTT4=
EXTT5=
EXTT6=
EXTT7=
EXTT8=
EXTT9=
EXTT10=
EXTT11=
EXTT12=
PLAYORDER=
